<svg width="649" height="121" viewBox="0 0 649 121" fill="none" xmlns="http://www.w3.org/2000/svg">
<path d="M60.5 0.5C93.6371 0.5 120.5 27.3629 120.5 60.5C120.5 93.6371 93.6371 120.5 60.5 120.5C48.3466 120.5 37.0376 116.886 27.5879 110.675C28.011 109.265 28.469 107.787 28.959 106.253C31.4544 98.4416 34.7324 89.3179 38.2988 80.6309C41.8708 71.9304 45.7067 63.7293 49.3096 57.7314C51.1156 54.725 52.8191 52.3483 54.3525 50.7471C55.9712 49.0569 57.0514 48.6006 57.6055 48.6006C58.129 48.6007 58.6693 48.8216 59.2959 49.5674C59.9581 50.3554 60.5923 51.599 61.1855 53.3037C62.3711 56.7108 63.1843 61.3215 64.0127 66.1494C64.8235 70.8746 65.6506 75.8192 66.8877 79.5703C67.5054 81.4433 68.276 83.1846 69.3105 84.4883C70.376 85.8309 71.8477 86.8496 73.7676 86.8496C77.5973 86.8494 79.912 83.7128 81.3633 80.4209C82.8686 77.0064 83.8572 72.5325 84.6602 68.1914C85.4838 63.7382 86.106 59.4774 86.8828 56.0713C87.2682 54.3816 87.6639 53.0389 88.0869 52.0908C88.4974 51.1709 88.7824 50.9706 88.7939 50.9551L88.7812 50.958L88.9688 50.8994C89.1232 50.8666 89.1899 50.9083 89.2969 50.9873C89.608 51.217 90.1629 51.8782 90.8203 53.5361C92.1177 56.8083 93.415 62.889 94.7119 73.3877L94.7207 73.458L94.7354 73.5283C94.8863 74.2818 95.1691 75.0089 95.6436 75.583C96.1179 76.1569 96.9294 76.7187 97.9834 76.6133C99.0335 76.5081 99.7168 75.8008 100.068 75.1523C100.422 74.5007 100.559 73.7386 100.559 72.9785V72.9482L100.558 72.918L100.507 71.499C100.221 64.2979 99.4499 55.5489 97.7041 48.6025C96.7791 44.9223 95.5352 41.556 93.8115 39.1963C92.0416 36.7734 89.5245 35.1459 86.2949 35.8291L86.0342 35.8896C83.3785 36.5648 81.8185 38.7394 80.835 40.9453C79.8136 43.2362 79.1974 46.044 78.666 48.5303C78.1075 51.1434 77.6491 53.3517 76.9834 54.877C76.6558 55.6276 76.3593 56.0103 76.1475 56.1826C76.0191 56.287 75.9138 56.3337 75.6748 56.2988C75.6245 56.2703 75.4182 56.121 75.123 55.5146C74.7266 54.7 74.3727 53.4659 74.0449 51.8184C73.3767 48.4599 72.9699 44.3098 72.2412 39.751C71.5409 35.3695 70.5574 30.7725 68.7344 27.2393C66.8766 23.6387 63.9504 20.8193 59.3838 20.8193C56.9998 20.8194 54.288 22.0775 51.542 23.8809C48.7222 25.7327 45.5672 28.3639 42.2285 31.5303C35.5446 37.8693 27.9549 46.5163 20.5967 55.8223C14.5542 63.4642 8.64511 71.5793 3.49609 79.2725C1.55238 73.3668 0.5 67.0563 0.5 60.5C0.5 27.3629 27.3629 0.5 60.5 0.5Z" fill="white"/>
<path d="M60.5 0.5C93.6371 0.5 120.5 27.3629 120.5 60.5C120.5 93.6371 93.6371 120.5 60.5 120.5C48.3466 120.5 37.0376 116.886 27.5879 110.675C28.011 109.265 28.469 107.787 28.959 106.253C31.4544 98.4416 34.7324 89.3179 38.2988 80.6309C41.8708 71.9304 45.7067 63.7293 49.3096 57.7314C51.1156 54.725 52.8191 52.3483 54.3525 50.7471C55.9712 49.0569 57.0514 48.6006 57.6055 48.6006C58.129 48.6007 58.6693 48.8216 59.2959 49.5674C59.9581 50.3554 60.5923 51.599 61.1855 53.3037C62.3711 56.7108 63.1843 61.3215 64.0127 66.1494C64.8235 70.8746 65.6506 75.8192 66.8877 79.5703C67.5054 81.4433 68.276 83.1846 69.3105 84.4883C70.376 85.8309 71.8477 86.8496 73.7676 86.8496C77.5973 86.8494 79.912 83.7128 81.3633 80.4209C82.8686 77.0064 83.8572 72.5325 84.6602 68.1914C85.4838 63.7382 86.106 59.4774 86.8828 56.0713C87.2682 54.3816 87.6639 53.0389 88.0869 52.0908C88.4974 51.1709 88.7824 50.9706 88.7939 50.9551L88.7812 50.958L88.9688 50.8994C89.1232 50.8666 89.1899 50.9083 89.2969 50.9873C89.608 51.217 90.1629 51.8782 90.8203 53.5361C92.1177 56.8083 93.415 62.889 94.7119 73.3877L94.7207 73.458L94.7354 73.5283C94.8863 74.2818 95.1691 75.0089 95.6436 75.583C96.1179 76.1569 96.9294 76.7187 97.9834 76.6133C99.0335 76.5081 99.7168 75.8008 100.068 75.1523C100.422 74.5007 100.559 73.7386 100.559 72.9785V72.9482L100.558 72.918L100.507 71.499C100.221 64.2979 99.4499 55.5489 97.7041 48.6025C96.7791 44.9223 95.5352 41.556 93.8115 39.1963C92.0416 36.7734 89.5245 35.1459 86.2949 35.8291L86.0342 35.8896C83.3785 36.5648 81.8185 38.7394 80.835 40.9453C79.8136 43.2362 79.1974 46.044 78.666 48.5303C78.1075 51.1434 77.6491 53.3517 76.9834 54.877C76.6558 55.6276 76.3593 56.0103 76.1475 56.1826C76.0191 56.287 75.9138 56.3337 75.6748 56.2988C75.6245 56.2703 75.4182 56.121 75.123 55.5146C74.7266 54.7 74.3727 53.4659 74.0449 51.8184C73.3767 48.4599 72.9699 44.3098 72.2412 39.751C71.5409 35.3695 70.5574 30.7725 68.7344 27.2393C66.8766 23.6387 63.9504 20.8193 59.3838 20.8193C56.9998 20.8194 54.288 22.0775 51.542 23.8809C48.7222 25.7327 45.5672 28.3639 42.2285 31.5303C35.5446 37.8693 27.9549 46.5163 20.5967 55.8223C14.5542 63.4642 8.64511 71.5793 3.49609 79.2725C1.55238 73.3668 0.5 67.0563 0.5 60.5C0.5 27.3629 27.3629 0.5 60.5 0.5Z" fill="#0443F2"/>
<path d="M165.45 86C165.45 78.32 165.45 70.58 165.45 62.78C165.45 54.92 165.45 47.15 165.45 39.47C167.91 39.47 170.4 39.47 172.92 39.47C175.44 39.47 177.9 39.47 180.3 39.47C180.3 39.89 180.3 40.28 180.3 40.64C180.3 41 180.3 41.39 180.3 41.81C181.86 40.67 183.6 39.8 185.52 39.2C187.44 38.54 189.42 38.21 191.46 38.21C193.68 38.21 195.72 38.6 197.58 39.38C199.44 40.1 201.03 41.18 202.35 42.62C204.27 41.24 206.43 40.16 208.83 39.38C211.29 38.6 213.81 38.21 216.39 38.21C220.05 38.21 223.2 38.96 225.84 40.46C228.54 41.96 230.61 44.09 232.05 46.85C233.55 49.61 234.3 52.94 234.3 56.84C234.3 61.64 234.3 66.5 234.3 71.42C234.3 76.34 234.3 81.2 234.3 86C231.9 86 229.44 86 226.92 86C224.4 86 221.91 86 219.45 86C219.45 81.5 219.45 76.94 219.45 72.32C219.45 67.7 219.45 63.14 219.45 58.64C219.45 56.6 218.97 54.95 218.01 53.69C217.11 52.37 215.64 51.71 213.6 51.71C211.62 51.71 210.06 52.34 208.92 53.6C207.84 54.8 207.3 56.48 207.3 58.64C207.3 63.14 207.3 67.7 207.3 72.32C207.3 76.94 207.3 81.5 207.3 86C204.9 86 202.44 86 199.92 86C197.4 86 194.91 86 192.45 86C192.45 81.5 192.45 76.94 192.45 72.32C192.45 67.7 192.45 63.14 192.45 58.64C192.45 56.6 191.97 54.95 191.01 53.69C190.11 52.37 188.64 51.71 186.6 51.71C184.62 51.71 183.06 52.34 181.92 53.6C180.84 54.8 180.3 56.48 180.3 58.64C180.3 63.14 180.3 67.7 180.3 72.32C180.3 76.94 180.3 81.5 180.3 86C177.9 86 175.44 86 172.92 86C170.4 86 167.91 86 165.45 86ZM265.547 87.44C262.067 87.44 258.827 86.84 255.827 85.64C252.827 84.38 250.217 82.64 247.997 80.42C245.777 78.14 244.037 75.5 242.777 72.5C241.577 69.5 240.977 66.23 240.977 62.69C240.977 59.15 241.577 55.88 242.777 52.88C244.037 49.88 245.777 47.27 247.997 45.05C250.217 42.83 252.827 41.12 255.827 39.92C258.827 38.66 262.067 38.03 265.547 38.03C269.087 38.03 272.327 38.66 275.267 39.92C278.267 41.12 280.877 42.83 283.097 45.05C285.317 47.27 287.027 49.88 288.227 52.88C289.487 55.88 290.117 59.15 290.117 62.69C290.117 66.23 289.487 69.5 288.227 72.5C287.027 75.5 285.317 78.14 283.097 80.42C280.877 82.64 278.267 84.38 275.267 85.64C272.327 86.84 269.087 87.44 265.547 87.44ZM265.547 74.03C268.487 74.03 270.827 72.98 272.567 70.88C274.367 68.72 275.267 65.99 275.267 62.69C275.267 59.33 274.367 56.63 272.567 54.59C270.827 52.49 268.487 51.44 265.547 51.44C262.607 51.44 260.237 52.49 258.437 54.59C256.697 56.63 255.827 59.33 255.827 62.69C255.827 65.99 256.697 68.72 258.437 70.88C260.237 72.98 262.607 74.03 265.547 74.03ZM333.012 71.6C333.012 75.32 331.962 78.38 329.862 80.78C327.822 83.12 325.062 84.83 321.582 85.91C318.102 86.99 314.202 87.44 309.882 87.26C305.622 87.14 301.272 86.45 296.832 85.19C296.832 82.91 296.832 80.57 296.832 78.17C296.832 75.77 296.832 73.43 296.832 71.15C299.352 72.29 301.872 73.19 304.392 73.85C306.912 74.45 309.192 74.81 311.232 74.93C313.272 75.05 314.922 74.9 316.182 74.48C317.442 74 318.072 73.22 318.072 72.14C318.072 71.3 317.532 70.64 316.452 70.16C315.432 69.68 314.082 69.26 312.402 68.9C310.722 68.48 308.922 68 307.002 67.46C305.142 66.86 303.372 66.05 301.692 65.03C300.012 63.95 298.632 62.54 297.552 60.8C296.532 59 296.022 56.69 296.022 53.87C296.022 50.51 296.982 47.66 298.902 45.32C300.882 42.92 303.522 41.12 306.822 39.92C310.122 38.66 313.812 38.03 317.892 38.03C321.972 38.03 326.142 38.72 330.402 40.1C330.402 42.38 330.402 44.72 330.402 47.12C330.402 49.52 330.402 51.86 330.402 54.14C327.042 52.52 323.892 51.44 320.952 50.9C318.012 50.36 315.642 50.3 313.842 50.72C312.042 51.08 311.142 51.89 311.142 53.15C311.142 53.99 311.652 54.65 312.672 55.13C313.752 55.55 315.102 55.94 316.722 56.3C318.402 56.66 320.172 57.14 322.032 57.74C323.952 58.34 325.722 59.18 327.342 60.26C329.022 61.28 330.372 62.72 331.392 64.58C332.472 66.38 333.012 68.72 333.012 71.6ZM371.227 86C371.227 85.52 371.227 85.07 371.227 84.65C371.227 84.17 371.227 83.72 371.227 83.3C369.727 84.56 368.017 85.52 366.097 86.18C364.237 86.9 362.227 87.26 360.067 87.26C357.007 87.26 354.127 86.69 351.427 85.55C348.727 84.35 346.327 82.67 344.227 80.51C342.187 78.29 340.567 75.68 339.367 72.68C338.227 69.68 337.657 66.35 337.657 62.69C337.657 58.97 338.227 55.61 339.367 52.61C340.567 49.61 342.187 47.06 344.227 44.96C346.327 42.8 348.727 41.15 351.427 40.01C354.127 38.81 356.977 38.21 359.977 38.21C362.137 38.21 364.177 38.57 366.097 39.29C368.017 39.95 369.727 40.88 371.227 42.08C371.227 41.6 371.227 41.15 371.227 40.73C371.227 40.31 371.227 39.89 371.227 39.47C373.687 39.47 376.177 39.47 378.697 39.47C381.217 39.47 383.677 39.47 386.077 39.47C386.077 47.15 386.077 54.92 386.077 62.78C386.077 70.58 386.077 78.32 386.077 86C383.677 86 381.217 86 378.697 86C376.177 86 373.687 86 371.227 86ZM362.047 74.12C364.927 74.12 367.237 73.07 368.977 70.97C370.717 68.87 371.587 66.11 371.587 62.69C371.587 59.27 370.717 56.54 368.977 54.5C367.237 52.4 364.927 51.35 362.047 51.35C359.107 51.35 356.767 52.37 355.027 54.41C353.347 56.45 352.507 59.21 352.507 62.69C352.507 66.17 353.347 68.96 355.027 71.06C356.767 73.1 359.107 74.12 362.047 74.12ZM404.177 87.44C402.437 87.44 400.817 87.02 399.317 86.18C397.877 85.34 396.737 84.2 395.897 82.76C395.057 81.32 394.637 79.76 394.637 78.08C394.637 76.4 395.057 74.87 395.897 73.49C396.737 72.05 397.877 70.91 399.317 70.07C400.817 69.23 402.437 68.81 404.177 68.81C405.917 68.81 407.477 69.23 408.857 70.07C410.297 70.91 411.437 72.05 412.277 73.49C413.177 74.87 413.627 76.4 413.627 78.08C413.627 79.76 413.177 81.32 412.277 82.76C411.437 84.2 410.297 85.34 408.857 86.18C407.477 87.02 405.917 87.44 404.177 87.44ZM417.901 62.69C417.901 58.13 418.831 54.14 420.691 50.72C422.551 47.24 425.131 44.45 428.431 42.35C431.731 40.25 435.571 38.99 439.951 38.57C444.331 38.09 449.011 38.6 453.991 40.1C453.991 42.38 453.991 44.69 453.991 47.03C453.991 49.37 453.991 51.68 453.991 53.96C450.511 52.28 447.181 51.5 444.001 51.62C440.821 51.74 438.211 52.73 436.171 54.59C434.131 56.39 433.111 59.09 433.111 62.69C433.111 66.29 434.131 69.02 436.171 70.88C438.211 72.68 440.821 73.64 444.001 73.76C447.181 73.82 450.511 73.04 453.991 71.42C453.991 73.7 453.991 76.01 453.991 78.35C453.991 80.69 453.991 83 453.991 85.28C449.011 86.78 444.331 87.29 439.951 86.81C435.571 86.39 431.731 85.13 428.431 83.03C425.131 80.93 422.551 78.17 420.691 74.75C418.831 71.27 417.901 67.25 417.901 62.69ZM463.673 86C463.673 75.14 463.673 64.19 463.673 53.15C463.673 42.11 463.673 31.16 463.673 20.3C466.133 20.3 468.623 20.3 471.143 20.3C473.663 20.3 476.123 20.3 478.523 20.3C478.523 31.16 478.523 42.11 478.523 53.15C478.523 64.19 478.523 75.14 478.523 86C476.123 86 473.663 86 471.143 86C468.623 86 466.133 86 463.673 86ZM510.938 87.44C507.458 87.44 504.218 86.84 501.218 85.64C498.218 84.38 495.608 82.64 493.388 80.42C491.168 78.14 489.428 75.5 488.168 72.5C486.968 69.5 486.368 66.23 486.368 62.69C486.368 59.15 486.968 55.88 488.168 52.88C489.428 49.88 491.168 47.27 493.388 45.05C495.608 42.83 498.218 41.12 501.218 39.92C504.218 38.66 507.458 38.03 510.938 38.03C514.478 38.03 517.718 38.66 520.658 39.92C523.658 41.12 526.268 42.83 528.488 45.05C530.708 47.27 532.418 49.88 533.618 52.88C534.878 55.88 535.508 59.15 535.508 62.69C535.508 66.23 534.878 69.5 533.618 72.5C532.418 75.5 530.708 78.14 528.488 80.42C526.268 82.64 523.658 84.38 520.658 85.64C517.718 86.84 514.478 87.44 510.938 87.44ZM510.938 74.03C513.878 74.03 516.218 72.98 517.958 70.88C519.758 68.72 520.658 65.99 520.658 62.69C520.658 59.33 519.758 56.63 517.958 54.59C516.218 52.49 513.878 51.44 510.938 51.44C507.998 51.44 505.628 52.49 503.828 54.59C502.088 56.63 501.218 59.33 501.218 62.69C501.218 65.99 502.088 68.72 503.828 70.88C505.628 72.98 507.998 74.03 510.938 74.03ZM586.322 39.47C586.322 47.15 586.322 54.92 586.322 62.78C586.322 70.58 586.322 78.32 586.322 86C583.922 86 581.462 86 578.942 86C576.422 86 573.932 86 571.472 86C571.472 85.58 571.472 85.19 571.472 84.83C571.472 84.47 571.472 84.08 571.472 83.66C569.852 84.8 568.022 85.67 565.982 86.27C564.002 86.93 561.842 87.26 559.502 87.26C556.082 87.26 553.052 86.48 550.412 84.92C547.832 83.36 545.792 81.11 544.292 78.17C542.852 75.23 542.132 71.75 542.132 67.73C542.132 63.05 542.132 58.34 542.132 53.6C542.132 48.86 542.132 44.15 542.132 39.47C544.592 39.47 547.082 39.47 549.602 39.47C552.122 39.47 554.582 39.47 556.982 39.47C556.982 43.79 556.982 48.17 556.982 52.61C556.982 57.05 556.982 61.43 556.982 65.75C556.982 68.15 557.522 70.1 558.602 71.6C559.742 73.04 561.512 73.76 563.912 73.76C566.312 73.76 568.172 73.07 569.492 71.69C570.812 70.31 571.472 68.33 571.472 65.75C571.472 61.43 571.472 57.05 571.472 52.61C571.472 48.17 571.472 43.79 571.472 39.47C573.932 39.47 576.422 39.47 578.942 39.47C581.462 39.47 583.922 39.47 586.322 39.47ZM627.252 86C627.252 85.52 627.252 85.07 627.252 84.65C627.252 84.17 627.252 83.72 627.252 83.3C625.752 84.56 624.042 85.52 622.122 86.18C620.262 86.9 618.252 87.26 616.092 87.26C613.032 87.26 610.152 86.66 607.452 85.46C604.752 84.26 602.352 82.58 600.252 80.42C598.212 78.2 596.592 75.59 595.392 72.59C594.252 69.59 593.682 66.29 593.682 62.69C593.682 59.03 594.252 55.7 595.392 52.7C596.592 49.7 598.212 47.12 600.252 44.96C602.352 42.8 604.752 41.15 607.452 40.01C610.152 38.81 613.002 38.21 616.002 38.21C618.162 38.21 620.202 38.57 622.122 39.29C624.042 39.95 625.752 40.88 627.252 42.08C627.252 38.48 627.252 34.85 627.252 31.19C627.252 27.53 627.252 23.9 627.252 20.3C629.712 20.3 632.202 20.3 634.722 20.3C637.242 20.3 639.702 20.3 642.102 20.3C642.102 31.16 642.102 42.11 642.102 53.15C642.102 64.19 642.102 75.14 642.102 86C639.702 86 637.242 86 634.722 86C632.202 86 629.712 86 627.252 86ZM618.072 74.12C620.952 74.12 623.262 73.07 625.002 70.97C626.742 68.87 627.612 66.11 627.612 62.69C627.612 59.27 626.742 56.54 625.002 54.5C623.262 52.4 620.952 51.35 618.072 51.35C615.132 51.35 612.792 52.37 611.052 54.41C609.372 56.45 608.532 59.21 608.532 62.69C608.532 66.17 609.372 68.96 611.052 71.06C612.792 73.1 615.132 74.12 618.072 74.12Z" fill="#0443F2"/>
</svg>
